<?xml version="1.0" standalone="no"?><!DOCTYPE svg PUBLIC "-//W3C//DTD SVG 1.1//EN" "http://www.w3.org/Graphics/SVG/1.1/DTD/svg11.dtd"><svg t="1629527106289" class="icon" viewBox="0 0 1024 1024" version="1.1" xmlns="http://www.w3.org/2000/svg" p-id="2256" xmlns:xlink="http://www.w3.org/1999/xlink" width="200" height="200"><defs><style type="text/css"></style></defs><path d="M511.3 146.7c49.4 0 97.3 9.7 142.3 28.7 43.5 18.4 82.7 44.8 116.3 78.4s60 72.7 78.4 116.3c19 45 28.7 92.9 28.7 142.3s-9.7 97.3-28.7 142.3c-18.4 43.5-44.8 82.7-78.4 116.3s-72.7 60-116.3 78.4c-45 19-92.9 28.7-142.3 28.7S414 868.4 369 849.4c-43.5-18.4-82.7-44.8-116.3-78.4s-60-72.7-78.4-116.3c-19-45-28.7-92.9-28.7-142.3s9.7-97.3 28.7-142.3c18.4-43.5 44.8-82.7 78.4-116.3s72.7-60 116.3-78.4c45-19.1 92.9-28.7 142.3-28.7m0-82C264 64.7 63.6 265.1 63.6 512.4S264 960.1 511.3 960.1 959 759.6 959 512.4 758.6 64.7 511.3 64.7z" p-id="2257"></path><path d="M697.4 471.7H552V326.3c0-22.4-18.2-40.6-40.6-40.6-22.4 0-40.6 18.2-40.6 40.6v145.4H325.3c-22.4 0-40.6 18.2-40.6 40.6 0 22.4 18.2 40.6 40.6 40.6h145.4v145.4c0 22.4 18.2 40.6 40.6 40.6 22.4 0 40.6-18.2 40.6-40.6V553h145.4c22.4 0 40.6-18.2 40.6-40.6 0.1-22.5-18.1-40.7-40.5-40.7z" p-id="2258"></path></svg>