<?xml version="1.0" standalone="no"?><!DOCTYPE svg PUBLIC "-//W3C//DTD SVG 1.1//EN" "http://www.w3.org/Graphics/SVG/1.1/DTD/svg11.dtd"><svg t="1629541804208" class="icon" viewBox="0 0 1225 1024" version="1.1" xmlns="http://www.w3.org/2000/svg" p-id="1967" xmlns:xlink="http://www.w3.org/1999/xlink" width="239.2578125" height="200"><defs><style type="text/css"></style></defs><path d="M976.585143 1023.634286V1024H247.625143v-9.344A219.428571 219.428571 0 0 1 91.428571 804.571429V219.428571A219.428571 219.428571 0 0 1 310.857143 0h394.221714a219.428571 219.428571 0 0 1 219.428572 219.428571v106.806858a146.176 146.176 0 0 1 42.148571-6.235429H969.142857a146.285714 146.285714 0 0 1 146.285714 146.285714V877.714286a146.157714 146.157714 0 0 1-138.843428 145.92zM820.370286 466.285714V205.714286a109.714286 109.714286 0 0 0-109.714286-109.714286H305.28a109.714286 109.714286 0 0 0-109.714286 109.714286v612.571428a109.714286 109.714286 0 0 0 109.714286 109.714286h405.394286a109.714286 109.714286 0 0 0 109.714285-109.714286V466.285714z m190.921143-6.893714a43.392 43.392 0 0 0-86.784 0v425.216a43.392 43.392 0 0 0 86.784 0V459.392zM633.526857 672H382.409143a48 48 0 0 1 0-96h251.117714a48 48 0 0 1 0 96z m0-224H382.409143a48 48 0 0 1 0-96h251.117714a48 48 0 0 1 0 96z" p-id="1968"></path></svg>