<?xml version="1.0" standalone="no"?><!DOCTYPE svg PUBLIC "-//W3C//DTD SVG 1.1//EN" "http://www.w3.org/Graphics/SVG/1.1/DTD/svg11.dtd"><svg t="1629430695845" class="icon" viewBox="0 0 1024 1024" version="1.1" xmlns="http://www.w3.org/2000/svg" p-id="6854" xmlns:xlink="http://www.w3.org/1999/xlink" width="200" height="200"><defs><style type="text/css"></style></defs><path d="M510.72 960C263.68 957.44 64 756.48 66.56 509.44 67.84 264.96 266.24 66.56 510.72 65.28c17.92 0 34.56 14.08 34.56 32s-14.08 34.56-32 34.56h-2.56c-209.92 0-380.16 170.24-380.16 380.16s170.24 380.16 380.16 380.16S890.88 721.92 890.88 512c0-17.92 16.64-33.28 34.56-32 17.92 0 32 15.36 32 32 0 247.04-199.68 448-446.72 448z" fill="#515151" p-id="6855"></path><path d="M643.84 480h-268.8c-17.92 0-34.56-14.08-34.56-32s14.08-34.56 32-34.56h271.36c17.92 0 33.28 16.64 32 34.56 1.28 17.92-14.08 32-32 32z m0 130.56h-268.8c-17.92 0-33.28-16.64-32-34.56 0-17.92 15.36-32 32-32h268.8c17.92 0 33.28 16.64 32 34.56 1.28 16.64-14.08 30.72-32 32z" fill="#515151" p-id="6856"></path><path d="M510.72 744.96c-17.92 0-33.28-15.36-33.28-33.28v-268.8c0-17.92 16.64-33.28 34.56-32 17.92 0 32 15.36 32 32v268.8c0 17.92-15.36 33.28-33.28 33.28z" fill="#515151" p-id="6857"></path><path d="M510.72 458.24c-8.96 0-17.92-3.84-24.32-10.24l-111.36-110.08c-14.08-11.52-15.36-33.28-2.56-47.36 11.52-14.08 33.28-15.36 47.36-2.56l2.56 2.56 110.08 110.08c12.8 12.8 12.8 34.56 0 47.36-5.12 6.4-14.08 10.24-21.76 10.24z" fill="#515151" p-id="6858"></path><path d="M510.72 458.24c-8.96 0-17.92-3.84-24.32-10.24-12.8-12.8-12.8-34.56 0-47.36l110.08-110.08c14.08-11.52 34.56-10.24 47.36 2.56 11.52 12.8 11.52 30.72 0 43.52L533.76 448c-6.4 6.4-15.36 10.24-23.04 10.24zM718.08 232.96l110.08-111.36 1.28-1.28c12.8-14.08 11.52-34.56-1.28-47.36-14.08-12.8-34.56-11.52-47.36 1.28l-110.08 111.36c-6.4 6.4-10.24 15.36-10.24 24.32 0 17.92 15.36 33.28 33.28 33.28 10.24 0 19.2-3.84 24.32-10.24z" fill="#515151" p-id="6859"></path><path d="M806.4 353.28c8.96 0 17.92-3.84 24.32-10.24 12.8-12.8 12.8-34.56 0-47.36l-110.08-110.08c-12.8-11.52-30.72-11.52-43.52 0-14.08 11.52-15.36 33.28-2.56 47.36l110.08 111.36c3.84 5.12 12.8 8.96 21.76 8.96z" fill="#515151" p-id="6860"></path><path d="M925.44 243.2c17.92 0 32-15.36 32-32 0-17.92-14.08-34.56-32-34.56H698.88c-17.92 0-33.28 16.64-32 34.56 0 17.92 16.64 33.28 34.56 32h224z" fill="#515151" p-id="6861"></path></svg>