<?xml version="1.0" standalone="no"?><!DOCTYPE svg PUBLIC "-//W3C//DTD SVG 1.1//EN" "http://www.w3.org/Graphics/SVG/1.1/DTD/svg11.dtd"><svg t="1628586376051" class="icon" viewBox="0 0 1024 1024" version="1.1" xmlns="http://www.w3.org/2000/svg" p-id="1143" xmlns:xlink="http://www.w3.org/1999/xlink" width="200" height="200"><defs><style type="text/css"></style></defs><path d="M711.43675 962.14421c-15.286148 0-29.522384-5.878894-40.166815-16.564257l-389.69649001-390.391315c-1.425466-1.39272-2.537799-2.577708-3.44956499-3.846608l-2.304486-2.905166c-11.362792-11.416004-16.945951-24.848944-16.945951-39.068807 0-14.47568899 5.708002-28.010961 16.05669801-38.110993L667.307693 83.041298c10.612709-10.46739899 24.785499-16.236799 39.892569-16.236799 14.77244801 0 28.726252 5.599532 39.287795 15.753799 10.497075 10.18599 16.538675 24.390503 16.538675 38.95215 0 14.382569-5.722328 28.009937-16.142655 38.36681901l-353.968777 350.17026499L751.40095 869.475648c10.249435 10.30981 15.909341 23.781636 15.909341 37.994336 0 14.889105-6.051833 28.859281-17.00018599 39.333844C739.890802 956.693058 726.060819 962.14421 711.43675 962.14421z" p-id="1144"></path></svg>