<?xml version="1.0" standalone="no"?><!DOCTYPE svg PUBLIC "-//W3C//DTD SVG 1.1//EN" "http://www.w3.org/Graphics/SVG/1.1/DTD/svg11.dtd"><svg t="1629430682031" class="icon" viewBox="0 0 1024 1024" version="1.1" xmlns="http://www.w3.org/2000/svg" p-id="2001" xmlns:xlink="http://www.w3.org/1999/xlink" width="200" height="200"><defs><style type="text/css"></style></defs><path d="M619 607.4H405.6c-22.8 0-41.3-18.5-41.3-41.3s18.5-41.3 41.3-41.3H619c22.8 0 41.3 18.5 41.3 41.3s-18.5 41.3-41.3 41.3z" fill="#f7c52f" p-id="2002"></path><path d="M512.3 705.7c-22.8 0-41.3-18.5-41.3-41.3V564c0-22.8 18.5-41.3 41.3-41.3 22.8 0 41.3 18.5 41.3 41.3v100.4c0 22.8-18.5 41.3-41.3 41.3z" fill="#f7c52f" p-id="2003"></path><path d="M496.3 562.2c-10.6 0-21.1-4-29.2-12.1l-68.8-68.8c-16.1-16.1-16.1-42.3 0-58.4s42.3-16.1 58.4 0l68.8 68.8c16.1 16.1 16.1 42.3 0 58.4-8 8.1-18.6 12.1-29.2 12.1z" fill="#f7c52f" p-id="2004"></path><path d="M526.7 562.2c-10.6 0-21.1-4-29.2-12.1-16.1-16.1-16.1-42.3 0-58.4l67-67c16.1-16.1 42.3-16.1 58.4 0s16.1 42.3 0 58.4l-67 67c-8.1 8.1-18.7 12.1-29.2 12.1z" fill="#f7c52f" p-id="2005"></path><path d="M512.3 924.2c-227.7 0-413-185.3-413-413s185.3-413 413-413c22.8 0 41.3 18.5 41.3 41.3s-18.5 41.3-41.3 41.3c-182.2 0-330.4 148.2-330.4 330.4s148.2 330.4 330.4 330.4 330.4-148.2 330.4-330.4c0-22.3-2.3-44.7-6.7-66.5-4.6-22.4 9.9-44.2 32.2-48.7 22.4-4.5 44.2 9.9 48.7 32.2 5.5 27.2 8.3 55.1 8.3 83 0.1 227.7-185.2 413-412.9 413z" fill="#f7c52f" p-id="2006"></path><path d="M853.9 299.7H585.4c-22.8 0-41.3-18.5-41.3-41.3s18.5-41.3 41.3-41.3h268.4c22.8 0 41.3 18.5 41.3 41.3s-18.4 41.3-41.2 41.3z" fill="#f7c52f" p-id="2007"></path><path d="M765 418.7c-10.6 0-21.1-4-29.2-12.1-16.1-16.1-16.1-42.3 0-58.4l89.8-89.8-89.8-89.8c-16.1-16.1-16.1-42.3 0-58.4s42.3-16.1 58.4 0l119 119c7.7 7.7 12.1 18.3 12.1 29.2 0 11-4.4 21.5-12.1 29.2l-119 119c-8 8.1-18.6 12.1-29.2 12.1z" fill="#f7c52f" p-id="2008"></path></svg>