<?xml version="1.0" standalone="no"?><!DOCTYPE svg PUBLIC "-//W3C//DTD SVG 1.1//EN" "http://www.w3.org/Graphics/SVG/1.1/DTD/svg11.dtd"><svg t="1629163302240" class="icon" viewBox="0 0 1024 1024" version="1.1" xmlns="http://www.w3.org/2000/svg" p-id="1905" xmlns:xlink="http://www.w3.org/1999/xlink" width="200" height="200"><defs><style type="text/css"></style></defs><path d="M751.72 575.731c19.39-23.213 35.209-48.999 47.191-76.971C815.559 459.899 824 418.597 824 376c0-83.338-32.454-161.688-91.383-220.617C673.688 96.454 595.338 64 512 64s-161.688 32.454-220.617 91.383C232.454 214.312 200 292.662 200 376c0 42.597 8.441 83.899 25.089 122.76 11.982 27.972 27.802 53.758 47.191 76.971-122.027 76.341-200.182 205.74-210.991 349.008C59.893 943.25 74.653 959 93.217 959c16.742 0 30.636-12.906 31.904-29.6 9.997-131.633 86.234-249.614 203.986-312.676 11.16-5.978 18.895-17.027 20.691-29.558 1.799-12.551-2.53-25.351-11.58-34.239-47.528-46.689-73.851-108.976-74.215-175.528-0.357-65.285 25.152-128.348 70.857-174.966 47.149-48.091 110.356-74.559 177.62-74.432 65.688 0.124 128.433 26.189 174.882 72.638C734.203 247.479 760 309.757 760 376c0 67.077-26.358 129.911-74.218 176.926-9.051 8.89-13.38 21.689-11.581 34.24 1.797 12.531 9.531 23.58 20.692 29.558C812.645 679.786 888.882 797.767 898.879 929.4c1.268 16.694 15.162 29.6 31.904 29.6 18.564 0 33.324-15.75 31.928-34.261-10.809-143.268-88.965-272.668-210.991-349.008z" fill="#1A1A1C" p-id="1906"></path></svg>