<?xml version="1.0" standalone="no"?><!DOCTYPE svg PUBLIC "-//W3C//DTD SVG 1.1//EN" "http://www.w3.org/Graphics/SVG/1.1/DTD/svg11.dtd"><svg t="1629427412861" class="icon" viewBox="0 0 1024 1024" version="1.1" xmlns="http://www.w3.org/2000/svg" p-id="2123" xmlns:xlink="http://www.w3.org/1999/xlink" width="200" height="200"><defs><style type="text/css"></style></defs><path d="M517.012015 427.752727a24.03297 24.03297 0 0 1-10.038303 0L217.05759 360.820364a22.310788 22.310788 0 0 1 0-43.48897L506.973712 250.414545c3.320242-0.713697 6.733576-0.713697 10.038303 0l289.947151 66.916849a22.326303 22.326303 0 0 1 0 43.48897l-289.947151 66.901333z m195.723636 178.967273c0 24.653576-66.916848 66.901333-200.73503 66.901333s-200.719515-42.247758-200.719516-66.901333V428.357818l185.949091 42.914909c9.821091 2.203152 20.014545 2.172121 29.804606-0.06206l185.700849-42.852849v178.362182zM868.849105 339.083636a66.622061 66.622061 0 0 0-51.867151-65.210181L526.740015 206.894545a67.335758 67.335758 0 0 0-29.789091 0.062061L207.034802 273.873455A66.606545 66.606545 0 0 0 155.152136 339.083636a66.622061 66.622061 0 0 0 51.851636 65.210182l59.671273 13.76194v188.664242c0 59.190303 67.754667 111.507394 245.325576 111.507394s245.341091-52.317091 245.341091-111.507394v-188.664242l59.640242-13.76194A66.622061 66.622061 0 0 0 868.849105 339.083636z" fill="#444444" p-id="2124"></path><path d="M712.735651 606.72c0 24.653576-66.916848 66.901333-200.73503 66.901333s-200.719515-42.247758-200.719516-66.901333V428.357818l185.949091 42.914909c9.821091 2.203152 20.014545 2.172121 29.804606-0.06206l185.700849-42.852849v178.362182z" fill="#F8D02D" p-id="2125"></path><path d="M824.243045 695.947636c-24.638061 0-44.606061 64.589576-44.606061 89.212122a44.606061 44.606061 0 0 0 89.212121 0c0-24.622545-19.983515-89.212121-44.60606-89.212122m-22.310788-245.341091v200.735031a22.295273 22.295273 0 1 0 44.621576 0V450.606545a22.295273 22.295273 0 1 0-44.621576 0" fill="#444444" p-id="2126"></path></svg>