<?xml version="1.0" standalone="no"?><!DOCTYPE svg PUBLIC "-//W3C//DTD SVG 1.1//EN" "http://www.w3.org/Graphics/SVG/1.1/DTD/svg11.dtd"><svg t="1629427779103" class="icon" viewBox="0 0 1024 1024" version="1.1" xmlns="http://www.w3.org/2000/svg" p-id="3181" xmlns:xlink="http://www.w3.org/1999/xlink" width="200" height="200"><defs><style type="text/css"></style></defs><path d="M706.358303 566.085818a49.307152 49.307152 0 1 0 0 98.614303 49.307152 49.307152 0 0 0 0-98.614303z m-388.701091 0a49.307152 49.307152 0 1 0 0.015515 98.614303 49.307152 49.307152 0 0 0 0-98.614303z m70.749091-209.345939h247.187394l20.914424 90.965333H367.476364l20.945454-90.965333z m-44.466424 134.609454h336.120242c8.098909 0 15.049697-3.009939 19.347394-8.176485 4.623515-5.321697 6.485333-12.613818 5.275152-20.526545l-0.310303-1.582545-26.422303-114.750061c-3.304727-18.090667-21.209212-33.202424-39.625697-33.202424H385.706667c-18.416485 0-36.352 15.111758-39.672243 33.202424l-26.375757 114.750061a17.811394 17.811394 0 0 0-0.310303 1.582545c-1.241212 7.912727 0.620606 15.204848 4.980363 20.216242 4.561455 5.476848 11.512242 8.486788 19.611152 8.486788z m442.011151 224.147394a21.845333 21.845333 0 0 0-16.849454 20.169697 34.040242 34.040242 0 0 1-33.931637 32.504243 33.869576 33.869576 0 0 1-33.776484-31.185455 21.783273 21.783273 0 0 0-21.721213-19.890424H344.327758c-11.326061 0-20.743758 8.610909-21.752243 19.874909a33.854061 33.854061 0 0 1-33.76097 31.185455 34.040242 34.040242 0 0 1-33.916121-32.488728 21.829818 21.829818 0 0 0-16.833939-20.169697c-25.010424-5.802667-41.099636-28.035879-39.144727-54.054788l7.338666-97.792c1.908364-25.398303 21.069576-48.469333 46.623031-56.056242 8.331636-2.497939 14.398061-9.681455 15.437575-18.338909 0.139636-1.241212 0.232727-2.497939 0.325818-3.723636 0.062061-0.651636 0.062061-1.303273 0.170667-1.892849L302.08 327.369697c7.664485-36.072727 45.304242-66.52897 82.183758-66.52897h255.488c36.864 0 74.503758 30.456242 82.183757 66.52897l33.233455 156.237576c0.124121 0.651636 0.124121 1.287758 0.170666 1.939394 0.093091 1.210182 0.186182 2.420364 0.341334 3.64606 1.008485 8.657455 7.090424 15.887515 15.453091 18.385455 25.537939 7.586909 44.699152 30.657939 46.607515 56.056242l7.323151 97.792c1.970424 26.003394-14.134303 48.252121-39.113697 54.054788z m75.295031-155.120485c-2.916848-39.051636-28.113455-73.541818-64.217213-89.615515l-32.426666-152.451879C752.748606 262.547394 696.754424 217.212121 639.767273 217.212121H384.263758c-56.987152 0-113.012364 45.335273-124.86594 101.096727l-32.426666 152.451879c-36.103758 16.089212-61.284848 50.579394-64.201697 89.615515l-7.338667 97.792c-3.149576 42.01503 20.743758 79.90303 58.259394 95.232a77.575758 77.575758 0 0 0 75.139879 58.399031 77.079273 77.079273 0 0 0 72.874666-51.091394h300.590546a77.079273 77.079273 0 0 0 72.874666 51.091394 77.591273 77.591273 0 0 0 75.170909-58.399031c37.515636-15.32897 61.393455-53.201455 58.228364-95.232l-7.323151-97.792z" fill="#444444" p-id="3182"></path><path d="M388.421818 356.739879h247.171879l20.914424 90.965333H367.476364z" fill="#F8D02D" p-id="3183"></path></svg>