<?xml version="1.0" standalone="no"?><!DOCTYPE svg PUBLIC "-//W3C//DTD SVG 1.1//EN" "http://www.w3.org/Graphics/SVG/1.1/DTD/svg11.dtd"><svg t="1629427951644" class="icon" viewBox="0 0 1024 1024" version="1.1" xmlns="http://www.w3.org/2000/svg" p-id="3485" xmlns:xlink="http://www.w3.org/1999/xlink" width="200" height="200"><defs><style type="text/css"></style></defs><path d="M325.763879 486.027636h370.501818v283.306667h-370.501818z" fill="#F8D02D" p-id="3486"></path><path d="M805.554424 469.860848h-73.076363v-15.825454c0-9.479758-6.780121-15.809939-16.989091-15.809939H307.673212c-10.193455 0-16.989091 6.330182-16.989091 15.825454v15.809939h-73.076363l-23.784728-47.19709 268.489697-86.993455h96.845576l268.489697 88.560485-22.093576 45.614545z m61.176243-68.313212a17.37697 17.37697 0 0 0-10.193455-8.502303l-288.892121-101.95006h-81.88897V197.290667h51.665455v46.235151h42.139151v-71.369697C579.560727 161.931636 572.749576 155.151515 562.556121 155.151515h-101.95006c-10.193455 0-16.989091 6.795636-16.989091 16.989091v124.059152L166.62497 393.045333c-5.08897 1.706667-8.486788 5.104485-10.193455 8.502303-1.706667 3.397818-1.706667 8.486788 0 13.591273l33.978182 86.667636c1.706667 6.795636 8.502303 10.193455 15.297939 10.193455h84.976485v339.859394c0 10.193455 6.795636 16.989091 16.989091 16.989091h407.815758c10.20897 0 17.004606-6.795636 17.004606-16.989091V512h84.960969c6.795636 0 13.591273-5.104485 15.29794-10.193455l33.978182-86.667636c1.706667-3.397818 1.706667-8.502303 0-13.591273z" fill="#444444" p-id="3487"></path><path d="M335.041939 758.877091H688.104727V486.027636H335.041939z" fill="#F8D02D" p-id="3488"></path><path d="M335.041939 829.253818H688.104727v-28.377212H335.041939z" fill="#FFFFFF" p-id="3489"></path><path d="M398.56097 655.018667c9.262545-0.822303 16.802909-8.021333 18.385454-17.532122 5.818182-33.931636 29.401212-61.486545 61.067637-71.400727 7.090424-2.110061 12.520727-8.036848 14.227394-15.515151 1.706667-7.478303-0.574061-15.36-5.988849-20.650667a20.076606 20.076606 0 0 0-20.154182-4.933818c-46.545455 14.553212-81.175273 55.032242-89.739636 104.882424-1.923879 11.651879 5.585455 22.807273 16.802909 24.886303 1.784242 0.325818 3.599515 0.418909 5.399273 0.263758z" fill="#444444" p-id="3490"></path></svg>