<?xml version="1.0" standalone="no"?><!DOCTYPE svg PUBLIC "-//W3C//DTD SVG 1.1//EN" "http://www.w3.org/Graphics/SVG/1.1/DTD/svg11.dtd"><svg t="1629427528681" class="icon" viewBox="0 0 1024 1024" version="1.1" xmlns="http://www.w3.org/2000/svg" p-id="2730" xmlns:xlink="http://www.w3.org/1999/xlink" width="200" height="200"><defs><style type="text/css"></style></defs><path d="M789.829818 617.378909c-50.238061-11.139879-86.109091-56.521697-86.109091-108.993939 0-52.410182 35.793455-97.776485 86.109091-109.009455V288.566303c0-11.217455-8.998788-20.355879-19.983515-20.355879H252.369455c-11.015758 0-19.99903 9.138424-19.999031 20.355879v110.886788c50.238061 11.155394 86.109091 56.521697 86.109091 109.009454 0 52.394667-35.793455 97.776485-86.109091 108.99394v110.886788c0 11.29503 8.998788 20.433455 19.999031 20.433454h517.399272c11.077818 0 19.983515-9.138424 19.983515-20.433454l0.077576-110.964364z" fill="#F8D02D" p-id="2731"></path><path d="M616.96 509.129697c11.682909 0 21.193697-9.665939 21.193697-21.643636s-9.510788-21.628121-21.193697-21.628122h-86.465939l80.259878-82.059636c8.22303-8.455758 8.22303-22.155636 0-30.611394a20.836848 20.836848 0 0 0-29.944242 0l-69.709576 71.19903-69.69406-71.276606a20.836848 20.836848 0 0 0-29.944243 0 22.062545 22.062545 0 0 0 0 30.611394l80.244364 82.137212H405.255758c-11.682909 0-21.193697 9.650424-21.193697 21.628122 0 11.977697 9.510788 21.643636 21.193697 21.643636h84.666181v39.610182H405.255758c-11.682909 0-21.193697 9.650424-21.193697 21.628121 0 11.977697 9.510788 21.643636 21.193697 21.643636h84.666181v78.910061c0 9.122909 9.510788 16.539152 21.193697 16.539151 11.682909 0 21.193697-7.416242 21.193697-16.539151v-78.910061h84.666182c11.682909 0 21.193697-9.665939 21.193697-21.643636s-9.510788-21.628121-21.193697-21.628121h-84.666182v-39.610182h84.666182z" fill="#444444" p-id="2732"></path><path d="M789.829818 617.378909c-50.238061-11.155394-86.109091-56.521697-86.109091-109.009454 0-52.394667 35.793455-97.776485 86.109091-109.009455V288.566303c0-11.23297-8.998788-20.371394-19.983515-20.371394H252.369455c-11.015758 0-19.99903 9.153939-19.999031 20.371394v110.871273c50.238061 11.170909 86.109091 56.537212 86.109091 109.009454 0 52.410182-35.793455 97.776485-86.109091 109.009455v110.871273c0 11.310545 8.998788 20.433455 19.999031 20.433454h517.399272c11.077818 0 19.983515-9.122909 19.983515-20.433454l0.077576-110.948849z m-40.060121-109.009454c0 35.483152 28.299636 64.387879 63.115636 64.387878 12.722424 0 23.133091 10.550303 23.133091 23.583031v131.909818c0 37.282909-29.633939 67.537455-66.172121 67.537454H252.369455C215.815758 795.787636 186.181818 765.533091 186.181818 728.250182V596.278303c0-13.032727 10.333091-23.58303 23.133091-23.58303 34.210909-0.961939 61.47103-29.478788 61.47103-64.387879 0-34.878061-27.260121-63.410424-61.47103-64.387879-12.722424 0-23.117576-10.550303-23.117576-23.58303V288.581818C186.181818 251.283394 215.815758 221.044364 252.353939 221.044364h517.399273c36.615758 0 66.172121 30.161455 66.172121 67.521939v131.909818c0 13.032727-10.333091 23.58303-23.117575 23.583031-34.753939-0.062061-63.053576 28.749576-63.053576 64.310303z" fill="#444444" p-id="2733"></path></svg>