<?xml version="1.0" standalone="no"?><!DOCTYPE svg PUBLIC "-//W3C//DTD SVG 1.1//EN" "http://www.w3.org/Graphics/SVG/1.1/DTD/svg11.dtd"><svg t="1629427882290" class="icon" viewBox="0 0 1024 1024" version="1.1" xmlns="http://www.w3.org/2000/svg" p-id="3333" xmlns:xlink="http://www.w3.org/1999/xlink" width="200" height="200"><defs><style type="text/css"></style></defs><path d="M533.659152 561.803636c-0.093091 0.155152-9.464242 13.699879-23.583031 13.699879-13.653333 0-22.279758-12.443152-22.900363-13.389576a23.955394 23.955394 0 0 0-40.541091 25.506909c8.254061 13.296485 30.906182 35.777939 63.456969 35.77794 32.364606 0 55.296-22.310788 63.736243-35.498667a23.800242 23.800242 0 0 0-7.074909-32.736969 24.079515 24.079515 0 0 0-33.093818 6.656M770.870303 709.430303c-0.465455-0.341333-1.008485-0.574061-1.489455-0.884364l-57.344-57.359515a23.924364 23.924364 0 1 0-33.869575 33.869576l45.459394 45.459394c-47.58497 51.556848-120.754424 78.739394-213.348849 78.739394-92.889212 0-166.229333-27.353212-213.798788-79.220364l44.99394-44.993939a23.939879 23.939879 0 1 0-33.869576-33.854061L247.125333 711.68c-0.155152 0.155152-0.279273 0.356848-0.434424 0.527515-0.620606 0.636121-1.148121 1.334303-1.675636 2.048-0.434424 0.574061-0.884364 1.132606-1.241212 1.737697-0.449939 0.698182-0.806788 1.427394-1.148122 2.172121-0.341333 0.667152-0.682667 1.334303-0.930909 2.01697-0.279273 0.744727-0.465455 1.473939-0.667151 2.234182-0.201697 0.729212-0.418909 1.458424-0.543031 2.218667-0.124121 0.775758-0.155152 1.520485-0.217212 2.296242-0.046545 0.760242-0.124121 1.50497-0.108606 2.249697 0.03103 0.775758 0.139636 1.551515 0.232728 2.327273 0.093091 0.760242 0.155152 1.50497 0.310303 2.234181 0.186182 0.760242 0.434424 1.489455 0.667151 2.218667 0.248242 0.760242 0.465455 1.50497 0.791273 2.234182 0.310303 0.682667 0.682667 1.334303 1.05503 2.001454 0.403394 0.729212 0.806788 1.458424 1.303273 2.156607 0.155152 0.201697 0.232727 0.418909 0.372364 0.620606 56.009697 74.689939 147.766303 114.176 265.386666 114.176 117.604848 0 209.37697-39.486061 265.386667-114.191516a23.955394 23.955394 0 0 0-4.809697-33.512727M773.244121 320.698182a23.924364 23.924364 0 1 0-40.587636 25.398303c35.219394 56.32 53.837576 124.943515 53.837576 198.469818 0 30.471758-3.258182 58.957576-9.728 84.712727a23.955394 23.955394 0 0 0 46.452363 11.636364c7.416242-29.540848 11.170909-61.952 11.170909-96.349091 0-82.540606-21.131636-159.945697-61.129697-223.868121M354.490182 270.894545c44.419879-34.241939 97.978182-52.332606 154.903273-52.332606 57.654303 0 111.802182 18.540606 156.578909 53.620364a23.908848 23.908848 0 0 0 33.621333-4.080485 23.955394 23.955394 0 0 0-4.080485-33.621333C642.218667 192.744727 577.861818 170.666667 509.393455 170.666667c-67.584 0-131.258182 21.550545-184.149334 62.293333a23.939879 23.939879 0 1 0 29.246061 37.934545M386.575515 490.077091c-30.285576 0-55.870061-18.276848-55.87006-39.90497 0-21.643636 25.6-39.920485 55.87006-39.920485 30.285576 0 55.870061 18.276848 55.870061 39.920485 0 21.628121-25.584485 39.90497-55.854546 39.90497m0-127.720727c-57.235394 0-103.796364 39.39297-103.796363 87.815757 0 48.407273 46.56097 87.800242 103.796363 87.800243 57.204364 0 103.749818-39.39297 103.749818-87.815758 0-48.407273-46.545455-87.800242-103.765333-87.800242" fill="#444444" p-id="3334"></path><path d="M325.818182 449.939394a62.060606 46.545455 0 1 0 124.121212 0 62.060606 46.545455 0 1 0-124.121212 0Z" fill="#F8D02D" p-id="3335"></path><path d="M634.026667 490.077091c-30.285576 0-55.870061-18.276848-55.870061-39.90497 0-21.643636 25.6-39.920485 55.870061-39.920485 30.285576 0 55.885576 18.276848 55.885575 39.920485 0 21.628121-25.6 39.90497-55.885575 39.90497m0-127.720727c-57.219879 0-103.765333 39.39297-103.765334 87.815757 0 48.407273 46.545455 87.800242 103.765334 87.800243 57.219879 0 103.780848-39.39297 103.780848-87.815758 0-48.407273-46.56097-87.800242-103.780848-87.800242" fill="#444444" p-id="3336"></path><path d="M574.060606 449.939394a62.060606 46.545455 0 1 0 124.121212 0 62.060606 46.545455 0 1 0-124.121212 0Z" fill="#F8D02D" p-id="3337"></path></svg>