<?xml version="1.0" standalone="no"?><!DOCTYPE svg PUBLIC "-//W3C//DTD SVG 1.1//EN" "http://www.w3.org/Graphics/SVG/1.1/DTD/svg11.dtd"><svg t="1629427322742" class="icon" viewBox="0 0 1024 1024" version="1.1" xmlns="http://www.w3.org/2000/svg" p-id="1516" xmlns:xlink="http://www.w3.org/1999/xlink" width="200" height="200"><defs><style type="text/css"></style></defs><path d="M386.916848 222.409697c0-29.184 23.753697-52.922182 52.937697-52.922182h143.670303c29.168485 0 52.906667 23.738182 52.906667 52.906667V246.380606h45.366303V222.409697A98.397091 98.397091 0 0 0 583.524848 124.121212h-143.670303a98.381576 98.381576 0 0 0-98.272969 98.288485v23.955394h45.335272V222.409697z m356.196849 524.784485a56.382061 56.382061 0 0 1-56.335515 56.32H336.554667a56.382061 56.382061 0 0 1-56.32-56.32v-297.270303a56.382061 56.382061 0 0 1 56.32-56.32h350.208A56.397576 56.397576 0 0 1 743.113697 449.939394v297.270303z m-56.335515-401.097697h-4.980364V276.604121H636.431515v69.476849H386.916848V276.604121H341.566061v69.492364h-4.995879A103.951515 103.951515 0 0 0 232.727273 449.923879v297.270303a103.951515 103.951515 0 0 0 103.842909 103.842909h16.337454v6.485333a30.254545 30.254545 0 1 0 60.478061 0v-6.485333h196.592485v6.485333a30.254545 30.254545 0 0 0 60.493576 0v-6.485333h16.290909a103.951515 103.951515 0 0 0 103.858424-103.842909v-297.270303a103.951515 103.951515 0 0 0-103.842909-103.827394z" fill="#444444" p-id="1517"></path><path d="M743.113697 747.194182a56.382061 56.382061 0 0 1-56.335515 56.32H336.554667a56.382061 56.382061 0 0 1-56.32-56.32v-297.270303a56.382061 56.382061 0 0 1 56.32-56.32h350.208A56.397576 56.397576 0 0 1 743.113697 449.939394v297.270303z" fill="#F8D02D" p-id="1518"></path><path d="M632.707879 461.994667c-12.520727 0-22.667636 10.162424-22.667637 22.683151v227.746909a22.683152 22.683152 0 1 0 45.366303 0V484.677818c0-12.520727-10.177939-22.683152-22.698666-22.683151zM390.640485 461.994667c-12.520727 0-22.683152 10.162424-22.667637 22.683151v227.746909a22.683152 22.683152 0 0 0 45.366304 0.031031V484.677818c0-12.520727-10.146909-22.683152-22.698667-22.683151z" fill="#444444" p-id="1519"></path></svg>