<?xml version="1.0" standalone="no"?><!DOCTYPE svg PUBLIC "-//W3C//DTD SVG 1.1//EN" "http://www.w3.org/Graphics/SVG/1.1/DTD/svg11.dtd"><svg t="1629607502836" class="icon" viewBox="0 0 1024 1024" version="1.1" xmlns="http://www.w3.org/2000/svg" p-id="5585" width="80" height="80" xmlns:xlink="http://www.w3.org/1999/xlink"><defs><style type="text/css"></style></defs><path d="M840.597015 479.522388c11.462687 0 21.014925-5.731343 24.835821-15.283582-17.19403-9.552239-34.38806-19.104478-53.492537-24.835821v11.462687c0 15.283582 13.373134 28.656716 28.656716 28.656716z" fill="#000000" p-id="5586"></path><path d="M869.253731 450.865672V179.58209c0-15.283582-13.373134-28.656716-28.656716-28.656717s-28.656716 13.373134-28.656716 28.656717V439.402985c19.104478 5.731343 36.298507 13.373134 53.492537 24.835821 3.820896-3.820896 3.820896-7.641791 3.820895-13.373134zM194.865672 706.865672c15.283582 0 28.656716-13.373134 28.656716-28.656717v-89.791045c0-15.283582-13.373134-28.656716-28.656716-28.656716s-28.656716 13.373134-28.656717 28.656716v89.791045c0 15.283582 13.373134 28.656716 28.656717 28.656717zM357.253731 706.865672c15.283582 0 28.656716-13.373134 28.656717-28.656717V466.149254c0-15.283582-13.373134-28.656716-28.656717-28.656717s-28.656716 13.373134-28.656716 28.656717v212.059701c0 15.283582 11.462687 28.656716 28.656716 28.656717z" fill="#000000" p-id="5587"></path><path d="M949.492537 754.626866c15.283582-30.567164 22.925373-63.044776 22.925373-99.343284 0-80.238806-42.029851-150.925373-106.985074-191.044776-5.731343 9.552239-13.373134 15.283582-24.835821 15.283582-15.283582 0-28.656716-13.373134-28.656716-28.656716V439.402985c-21.014925-5.731343-42.029851-9.552239-64.955224-9.552239-13.373134 0-26.746269 1.910448-40.119403 3.820896V420.298507c0-15.283582-13.373134-28.656716-28.656717-28.656716S649.552239 405.014925 649.552239 420.298507v32.477612c-45.850746 21.014925-82.149254 59.223881-105.074627 103.16418V330.507463c0-15.283582-13.373134-28.656716-28.656716-28.656717s-28.656716 13.373134-28.656717 28.656717v347.701492c0 15.283582 13.373134 28.656716 28.656717 28.656717 3.820896 0 7.641791 0 11.462686-1.910448 3.820896 17.19403 9.552239 34.38806 17.19403 49.671642H97.432836c-21.014925 0-38.208955 17.19403-38.208955 38.208955s17.19403 38.208955 38.208955 38.208955h508.179104c38.208955 32.477612 87.880597 51.58209 141.373135 51.58209 53.492537 0 103.164179-19.104478 141.373134-51.58209H936.119403c21.014925 0 38.208955-17.19403 38.208955-38.208955 1.910448-19.104478-9.552239-32.477612-24.835821-38.208955z m-64.955224-1.910448c-30.567164 42.029851-80.238806 70.686567-135.641791 70.686567-55.402985 0-105.074627-26.746269-135.641791-70.686567-19.104478-26.746269-32.477612-61.134328-32.477612-97.432836 0-91.701493 74.507463-168.119403 168.119403-168.119403 91.701493 0 168.119403 74.507463 168.119403 168.119403-1.910448 36.298507-13.373134 70.686567-32.477612 97.432836z" fill="#000000" p-id="5588"></path><path d="M748.895522 636.179104h19.104478V534.925373c0-11.462687-7.641791-19.104478-19.104478-19.104477s-19.104478 7.641791-19.104477 19.104477v122.268657c0-11.462687 7.641791-21.014925 19.104477-21.014926z" fill="#000000" p-id="5589"></path><path d="M869.253731 636.179104h-103.164179v19.104478c0 11.462687-7.641791 19.104478-19.104477 19.104478h122.268656c11.462687 0 19.104478-7.641791 19.104478-19.104478s-7.641791-19.104478-19.104478-19.104478z" fill="#000000" p-id="5590"></path><path d="M768 655.283582v-19.104478h-19.104478c-11.462687 0-19.104478 7.641791-19.104477 19.104478s7.641791 19.104478 19.104477 19.104478 19.104478-7.641791 19.104478-19.104478z" fill="#000000" p-id="5591"></path></svg>