<?xml version="1.0" standalone="no"?><!DOCTYPE svg PUBLIC "-//W3C//DTD SVG 1.1//EN" "http://www.w3.org/Graphics/SVG/1.1/DTD/svg11.dtd"><svg t="1629427389485" class="icon" viewBox="0 0 1024 1024" version="1.1" xmlns="http://www.w3.org/2000/svg" p-id="1818" xmlns:xlink="http://www.w3.org/1999/xlink" width="200" height="200"><defs><style type="text/css"></style></defs><path d="M378.166303 221.494303c12.706909 16.942545 29.633939 46.592 29.633939 93.184 0 38.120727-25.398303 76.225939-59.283394 118.582303-42.356364 55.078788-88.948364 118.597818-88.948363 199.059394 0 127.069091 131.304727 173.661091 254.138182 173.661091 122.817939 0 254.122667-46.592 254.122666-173.645576 0-80.477091-46.592-148.247273-88.948363-203.310545-29.649455-42.356364-59.298909-80.461576-59.298909-118.582303 0-46.592 16.942545-76.241455 29.633939-93.184-33.869576 0-84.697212-4.235636-135.524848-4.235637s-101.655273 4.235636-135.524849 8.471273m135.524849 626.843152C369.69503 848.337455 217.212121 793.289697 217.212121 632.335515c0-97.419636 55.063273-169.425455 97.419637-228.724363 25.413818-38.120727 50.827636-67.754667 50.827636-93.168485 0-42.356364-16.942545-63.534545-29.649455-76.241455-8.471273-8.471273-16.942545-16.942545-16.942545-29.649454 0-12.722424 8.471273-21.178182 16.942545-21.178182C344.281212 179.137939 424.742788 170.666667 513.691152 170.666667s169.425455 8.471273 173.66109 12.706909c8.471273 0 16.942545 8.471273 16.942546 21.178182s-8.471273 21.178182-16.942546 33.88509c-12.722424 16.942545-29.649455 38.120727-29.649454 76.241455 0 25.413818 25.413818 55.047758 50.827636 93.168485 42.356364 59.298909 97.404121 131.304727 97.404121 228.724364 4.235636 156.70303-148.231758 211.781818-292.243393 211.781818" fill="#444444" p-id="1819"></path><path d="M513.706667 712.812606c-59.314424 0-118.597818-21.178182-160.954182-67.770182a20.48 20.48 0 0 1 0-29.649454 20.48 20.48 0 0 1 29.633939 0c72.005818 71.990303 190.603636 71.990303 266.845091 0a20.48 20.48 0 0 1 29.63394 0 20.48 20.48 0 0 1 0 29.633939c-46.576485 42.356364-105.875394 67.785697-165.174303 67.785697M513.706667 365.490424c-42.356364 0-88.963879-4.235636-135.540364-8.471272-12.722424 0-21.178182-12.691394-16.942545-25.398304 0-12.722424 12.706909-21.178182 25.413818-16.942545 84.712727 8.471273 173.645576 8.471273 258.358303 0 12.706909 0 21.178182 8.471273 25.413818 16.942545 0 12.706909-8.471273 21.178182-16.942545 25.398304-50.827636 4.235636-97.419636 8.471273-139.776 8.471272" fill="#444444" p-id="1820"></path><path d="M412.035879 492.559515c-4.235636 0-8.471273 0-12.691394-4.235636-8.471273-4.235636-12.722424-16.942545-4.235637-29.63394 33.869576-50.843152 42.356364-118.597818 42.356364-118.597818 0-12.722424 12.691394-21.178182 21.162667-21.178182 12.722424 0 21.178182 12.706909 21.178182 21.178182s-8.471273 80.461576-50.827637 143.996121c-4.235636 4.235636-8.471273 8.471273-16.942545 8.471273" fill="#444444" p-id="1821"></path><path d="M259.568485 632.335515c-9.852121 126.94497 131.304727 173.645576 254.138182 173.645576 122.817939 0 254.122667-46.592 254.122666-173.645576 0-139.776-494.638545-175.429818-508.276363 0z" fill="#F8D02D" p-id="1822"></path><path d="M691.587879 674.691879c-8.471273 0-16.942545-4.235636-21.178182-12.722424-8.471273-16.92703-21.178182-33.869576-38.120727-42.356364-8.471273-4.220121-16.942545-16.92703-8.471273-29.633939 4.235636-8.471273 16.942545-16.942545 29.633939-8.471273a104.835879 104.835879 0 0 1 59.314425 67.770182c4.235636 12.706909 0 21.178182-12.722425 25.413818-4.220121-4.235636-4.220121 0-8.455757 0" fill="#444444" p-id="1823"></path></svg>