<?xml version="1.0" standalone="no"?><!DOCTYPE svg PUBLIC "-//W3C//DTD SVG 1.1//EN" "http://www.w3.org/Graphics/SVG/1.1/DTD/svg11.dtd"><svg t="1629428012255" class="icon" viewBox="0 0 1024 1024" version="1.1" xmlns="http://www.w3.org/2000/svg" p-id="3638" xmlns:xlink="http://www.w3.org/1999/xlink" width="200" height="200"><defs><style type="text/css"></style></defs><path d="M643.018162 349.090909h-65.504969V316.509091c0-35.995152-29.323636-65.163636-65.50497-65.163636-36.181333 0-65.50497 29.168485-65.50497 65.163636v32.581818h-65.504969V316.509091c0-71.990303 58.647273-130.327273 131.009939-130.327273 72.362667 0 131.009939 58.33697 131.009939 130.327273v32.581818zM288.652102 772.654545h446.727757l-54.597818-325.818181H343.234405l-54.582303 325.818181zM249.957314 837.818182c-9.619394 0-18.773333-4.220121-24.979394-11.527758a32.457697 32.457697 0 0 1-7.323152-26.406788l65.50497-390.981818A32.705939 32.705939 0 0 1 315.493314 381.672727h393.045333c16.011636 0 29.66497 11.512242 32.302546 27.213576l65.504969 390.981818a32.442182 32.442182 0 0 1-7.307636 26.422303c-6.221576 7.307636-15.36 11.527758-24.994909 11.527758H249.957314z" fill="#444444" p-id="3639"></path><path d="M335.166526 441.297455h361.254788l56.738909 342.574545H271.740587z" fill="#F8D02D" p-id="3640"></path><path d="M394.056708 677.593944c13.151799-1.166208 23.86067-11.385465 26.118958-24.914741 8.274191-48.194721 41.745774-87.333624 86.754665-101.410337a29.633939 29.633939 0 0 0 20.203877-22.029926 31.418182 31.418182 0 0 0-8.515399-29.329198 28.516848 28.516848 0 0 0-28.631761-7.011014c-66.097263 20.656329-115.311667 78.16424-127.446851 148.983744-2.757361 16.547652 7.924942 32.371144 23.853769 35.353963 2.531124 0.448255 5.112484 0.580627 7.662742 0.357509z" fill="#444444" p-id="3641"></path></svg>