<?xml version="1.0" standalone="no"?><!DOCTYPE svg PUBLIC "-//W3C//DTD SVG 1.1//EN" "http://www.w3.org/Graphics/SVG/1.1/DTD/svg11.dtd"><svg t="1629427315583" class="icon" viewBox="0 0 1024 1024" version="1.1" xmlns="http://www.w3.org/2000/svg" p-id="1363" xmlns:xlink="http://www.w3.org/1999/xlink" width="200" height="200"><defs><style type="text/css"></style></defs><path d="M871.998061 778.333091H154.965333a29.013333 29.013333 0 0 0-27.880727 29.044364 29.013333 29.013333 0 0 0 27.880727 29.028848h717.032728A29.013333 29.013333 0 0 0 899.878788 807.377455a29.013333 29.013333 0 0 0-27.880727-29.044364z m-362.402909-417.978182c160.659394 0.139636 290.878061 130.870303 291.017696 292.181333 0 3.630545 0 12.288-0.186181 19.502546H218.763636c0-7.090424-0.186182-15.592727-0.186181-19.502546 0.155152-161.326545 130.373818-292.072727 291.064242-292.196848h-0.046545z m3.878787-100.662303a44.450909 44.450909 0 0 1 44.326788 44.497455v1.442909a344.917333 344.917333 0 0 0-48.128-3.351273c-13.513697 0-27.027394 0.775758-40.463515 2.327273v-0.418909a44.481939 44.481939 0 0 1 44.280243-44.497455zM153.025939 729.956848h717.048243a28.951273 28.951273 0 0 0 28.904727-29.013333c0-16.027152-12.939636-29.013333-28.904727-29.013333h-12.101818c0.341333-6.438788 0.527515-12.955152 0.527515-19.502546-0.263758-152.715636-98.84703-287.744-243.820606-333.932606a102.617212 102.617212 0 0 0-53.635879-105.006545 101.794909 101.794909 0 0 0-105.378909 6.237091 102.725818 102.725818 0 0 0-43.613091 96.504242c-148.774788 43.752727-251.066182 180.658424-251.283394 336.306424 0 6.438788 0.186182 12.955152 0.54303 19.502546h-8.285091A28.951273 28.951273 0 0 0 124.121212 701.052121c0 16.027152 12.939636 29.013333 28.889212 29.013334v-0.124122z" fill="#444444" p-id="1364"></path><path d="M200.967758 678.725818c32.240485-234.433939 142.537697-344.917333 330.907151-331.496727 282.561939 20.123152 276.604121 311.109818 282.561939 324.809697 3.971879 9.138424-200.517818 11.357091-613.46909 6.68703z" fill="#F8D02D" p-id="1365"></path><path d="M312.102788 607.20097c13.187879 0 24.746667-9.24703 28.175515-22.528 12.443152-47.290182 49.214061-83.362909 95.26303-93.463273a29.633939 29.633939 0 0 0 22.047031-20.185212 31.418182 31.418182 0 0 0-5.911273-29.975273 28.516848 28.516848 0 0 0-27.927273-9.464242c-67.646061 14.81697-121.669818 67.801212-139.946666 137.309091-4.173576 16.244364 5.08897 32.938667 20.681696 37.282909 2.482424 0.682667 5.042424 1.024 7.602425 1.024z" fill="#444444" p-id="1366"></path></svg>