<?xml version="1.0" standalone="no"?><!DOCTYPE svg PUBLIC "-//W3C//DTD SVG 1.1//EN" "http://www.w3.org/Graphics/SVG/1.1/DTD/svg11.dtd"><svg t="1629607135042" class="icon" viewBox="0 0 1024 1024" version="1.1" xmlns="http://www.w3.org/2000/svg" p-id="4290" xmlns:xlink="http://www.w3.org/1999/xlink" width="200" height="200"><defs><style type="text/css"></style></defs><path d="M985.3155552000001 829.9709631999999c-29.127111466666666-58.25422186666666-58.25422186666666-194.18074026666667-89.808592-252.4349632-9.7090368-19.4180736-24.272593066666666-29.127111466666666-46.1179264-29.127111466666666h-152.91733333333335c-21.845333333333333 0-36.40888853333333 9.7090368-46.11792533333333 26.699851733333333-29.127111466666666 58.25422186666666-60.6814816 194.18074026666667-89.80859306666666 252.4349632-19.4180736 36.40888853333333 2.427259733333333 82.52681493333333 48.54518506666667 82.52681493333333 58.25422186666666-2.427259733333333 97.09037013333334 0 155.34459306666668 0H936.7703701333332c7.281778133333333 0 16.990814933333333 0 24.272593066666666-2.427258666666667 26.699851733333333-12.136296533333333 38.83614826666667-46.1179264 24.272592-77.67229653333334zM713.4625184 470.73659306666667c29.127111466666666-12.136296533333333 38.83614826666667-46.1179264 24.272593066666666-77.67229653333334-29.127111466666666-58.25422186666666-58.25422186666666-194.18074026666667-89.80859306666666-252.4349632-9.7090368-19.4180736-24.272593066666666-29.127111466666666-46.11792533333333-29.127111466666666h-172.335408c-21.845333333333333 0-36.40888853333333 9.7090368-46.11792533333333 26.699851733333333-29.127111466666666 58.25422186666666-60.6814816 194.18074026666667-89.80859306666666 252.4349632-19.4180736 36.40888853333333 2.427259733333333 82.52681493333333 48.54518506666667 82.52681493333333 58.25422186666666-2.427259733333333 116.5084448 0 174.76266666666666 0h172.335408c7.281778133333333 0 14.5635552 0 24.272592-2.427258666666667z m-332.53451839999997 106.79940693333333c-9.7090368-19.4180736-24.272593066666666-29.127111466666666-46.1179264-29.127111466666666H181.8927402666667c-21.845333333333333 0-36.40888853333333 9.7090368-46.11792533333333 26.699851733333333-29.127111466666666 58.25422186666666-60.6814816 194.18074026666667-89.80859306666666 252.4349632-19.4180736 36.40888853333333 2.427259733333333 82.52681493333333 48.54518506666667 82.52681493333333 58.25422186666666-2.427259733333333 116.5084448 0 174.76266666666666 0h152.91733333333335c7.281778133333333 0 16.990814933333333 0 24.272593066666666-2.427258666666667 29.127111466666666-12.136296533333333 38.83614826666667-46.1179264 24.272593066666666-77.67229653333334-29.127111466666666-58.25422186666666-58.25422186666666-194.18074026666667-89.80859306666666-252.4349632z m0 0" fill="" p-id="4291"></path></svg>